<svg width="32" height="32" viewBox="0 0 32 32" fill="none" xmlns="http://www.w3.org/2000/svg">
<path d="M0.865631 15.6281C0.865631 7.09531 7.78283 0.178101 16.3156 0.178101V0.178101C24.8484 0.178101 31.7656 7.0953 31.7656 15.6281V31.0781H0.865631V15.6281Z" fill="#F3AFA8"/>
<path d="M8.88177 24.6131L10.526 24.6131L10.526 22.9116L8.88177 22.9116L8.88177 24.6131ZM22.5708 10.6556C22.5708 10.5405 22.4806 10.4472 22.3694 10.4472L20.557 10.4472C20.4458 10.4472 20.3556 10.5405 20.3556 10.6556C20.3556 10.7707 20.4458 10.864 20.557 10.864L22.168 10.864L22.168 12.5311C22.168 12.6462 22.2582 12.7395 22.3694 12.7395C22.4806 12.7395 22.5708 12.6462 22.5708 12.5311L22.5708 10.6556ZM9.84628 23.9097L22.5118 10.803L22.227 10.5082L9.56149 23.615L9.84628 23.9097Z" fill="#2D2D2D"/>
</svg>
