<svg width="125" height="21" viewBox="0 0 125 21" fill="none" xmlns="http://www.w3.org/2000/svg">
<path d="M9.76989 2.64487C10.1367 1.90162 11.1965 1.90162 11.5634 2.64487L13.3729 6.31135C13.5185 6.6065 13.8001 6.81107 14.1258 6.8584L18.172 7.44634C18.9922 7.56553 19.3198 8.5735 18.7262 9.15204L15.7984 12.006C15.5627 12.2357 15.4551 12.5667 15.5108 12.8911L16.202 16.921C16.3421 17.7379 15.4846 18.3609 14.751 17.9752L11.132 16.0725C10.8406 15.9194 10.4926 15.9194 10.2013 16.0725L6.58225 17.9752C5.84862 18.3609 4.99119 17.7379 5.1313 16.921L5.82247 12.8911C5.87811 12.5667 5.77056 12.2357 5.53487 12.006L2.60701 9.15204C2.01349 8.5735 2.341 7.56553 3.16122 7.44634L7.20743 6.8584C7.53314 6.81107 7.81471 6.6065 7.96037 6.31135L9.76989 2.64487Z" fill="#2D2D2D"/>
<path d="M35.7699 2.64487C36.1367 1.90162 37.1965 1.90162 37.5634 2.64487L39.3729 6.31135C39.5185 6.6065 39.8001 6.81107 40.1258 6.8584L44.172 7.44634C44.9922 7.56553 45.3198 8.5735 44.7262 9.15204L41.7984 12.006C41.5627 12.2357 41.4551 12.5667 41.5108 12.8911L42.202 16.921C42.3421 17.7379 41.4846 18.3609 40.751 17.9752L37.132 16.0725C36.8406 15.9194 36.4926 15.9194 36.2013 16.0725L32.5822 17.9752C31.8486 18.3609 30.9912 17.7379 31.1313 16.921L31.8225 12.8911C31.8781 12.5667 31.7706 12.2357 31.5349 12.006L28.607 9.15204C28.0135 8.5735 28.341 7.56553 29.1612 7.44634L33.2074 6.8584C33.5331 6.81107 33.8147 6.6065 33.9604 6.31135L35.7699 2.64487Z" fill="#2D2D2D"/>
<path d="M61.7699 2.64487C62.1367 1.90162 63.1965 1.90162 63.5634 2.64487L65.3729 6.31135C65.5185 6.6065 65.8001 6.81107 66.1258 6.8584L70.172 7.44634C70.9922 7.56553 71.3198 8.5735 70.7262 9.15204L67.7984 12.006C67.5627 12.2357 67.4551 12.5667 67.5108 12.8911L68.202 16.921C68.3421 17.7379 67.4846 18.3609 66.751 17.9752L63.132 16.0725C62.8406 15.9194 62.4926 15.9194 62.2013 16.0725L58.5822 17.9752C57.8486 18.3609 56.9912 17.7379 57.1313 16.921L57.8225 12.8911C57.8781 12.5667 57.7706 12.2357 57.5349 12.006L54.607 9.15204C54.0135 8.5735 54.341 7.56553 55.1612 7.44634L59.2074 6.8584C59.5331 6.81107 59.8147 6.6065 59.9604 6.31135L61.7699 2.64487Z" fill="#2D2D2D"/>
<path d="M87.7699 2.64487C88.1367 1.90162 89.1965 1.90162 89.5634 2.64487L91.3729 6.31135C91.5185 6.6065 91.8001 6.81107 92.1258 6.8584L96.172 7.44634C96.9922 7.56553 97.3198 8.5735 96.7262 9.15204L93.7984 12.006C93.5627 12.2357 93.4551 12.5667 93.5108 12.8911L94.202 16.921C94.3421 17.7379 93.4846 18.3609 92.751 17.9752L89.132 16.0725C88.8406 15.9194 88.4926 15.9194 88.2013 16.0725L84.5822 17.9752C83.8486 18.3609 82.9912 17.7379 83.1313 16.921L83.8225 12.8911C83.8781 12.5667 83.7706 12.2357 83.5349 12.006L80.607 9.15204C80.0135 8.5735 80.341 7.56553 81.1612 7.44634L85.2074 6.8584C85.5331 6.81107 85.8147 6.6065 85.9604 6.31135L87.7699 2.64487Z" fill="#2D2D2D"/>
<path d="M113.77 2.64487C114.137 1.90162 115.197 1.90162 115.563 2.64487L117.373 6.31135C117.519 6.6065 117.8 6.81107 118.126 6.8584L122.172 7.44634C122.992 7.56553 123.32 8.5735 122.726 9.15204L119.798 12.006C119.563 12.2357 119.455 12.5667 119.511 12.8911L120.202 16.921C120.342 17.7379 119.485 18.3609 118.751 17.9752L115.132 16.0725C114.841 15.9194 114.493 15.9194 114.201 16.0725L110.582 17.9752C109.849 18.3609 108.991 17.7379 109.131 16.921L109.822 12.8911C109.878 12.5667 109.771 12.2357 109.535 12.006L106.607 9.15204C106.013 8.5735 106.341 7.56553 107.161 7.44634L111.207 6.8584C111.533 6.81107 111.815 6.6065 111.96 6.31135L113.77 2.64487Z" fill="#2D2D2D"/>
</svg>
